<svg width="856" height="675" viewBox="0 0 856 675" fill="none" xmlns="http://www.w3.org/2000/svg">
    
    <path d="M449 306V386L583 520V656" stroke="#C7CEEA" strokeWidth="10"/>
    <circle cx="583" cy="656" r="19" fill="#FFDAC1"/>
    <circle cx="583" cy="656" r="19" fill="#FFDAC1"/>
    <circle cx="583" cy="656" r="19" fill="#FFDAC1"/>
    <circle cx="583" cy="656" r="19" fill="#FFDAC1"/>
    
    <circle cx="580" cy="520" r="19" fill="#FFDAC1"/>
    <circle cx="580" cy="520" r="19" fill="#FFDAC1"/>
    <circle cx="580" cy="520" r="19" fill="#FFDAC1"/>
    <circle cx="580" cy="520" r="19" fill="#FFDAC1"/>
    
    <path d="M449 305.5L522 232.5V93.5L596.5 19H739" stroke="#B5EAD7" strokeWidth="10"/>
    <circle cx="519" cy="233" r="19" fill="#FFDAC1"/>
    <circle cx="519" cy="233" r="19" fill="#FFDAC1"/>
    <circle cx="519" cy="233" r="19" fill="#FFDAC1"/>
    <circle cx="519" cy="233" r="19" fill="#FFDAC1"/>
    
    <circle cx="739" cy="19" r="19" fill="#FFDAC1"/>
    <circle cx="739" cy="19" r="19" fill="#FFDAC1"/>
    <circle cx="739" cy="19" r="19" fill="#FFDAC1"/>
    <circle cx="739" cy="19" r="19" fill="#FFDAC1"/>
    
    <path d="M449 306L407 348L358 397V498L310.5 545.5H19" stroke="#B5EAD7" strokeWidth="10"/>
    <circle cx="360" cy="395" r="19" fill="#FFDAC1"/>
    <circle cx="360" cy="395" r="19" fill="#FFDAC1"/>
    <circle cx="360" cy="395" r="19" fill="#FFDAC1"/>
    <circle cx="360" cy="395" r="19" fill="#FFDAC1"/>
    
    <circle cx="313" cy="546" r="19" fill="#FFDAC1"/>
    <circle cx="313" cy="546" r="19" fill="#FFDAC1"/>
    <circle cx="313" cy="546" r="19" fill="#FFDAC1"/>
    <circle cx="313" cy="546" r="19" fill="#FFDAC1"/>
    
    <circle cx="19" cy="546" r="19" fill="#FFDAC1"/>
    <circle cx="19" cy="546" r="19" fill="#FFDAC1"/>
    <circle cx="19" cy="546" r="19" fill="#FFDAC1"/>
    <circle cx="19" cy="546" r="19" fill="#FFDAC1"/>
    
    <path d="M449 306L500 357L551 306H683L715 274H837" stroke="#FF9AA2" strokeWidth="10"/>
    <circle cx="837" cy="274" r="19" fill="#FFDAC1"/>
    <circle cx="837" cy="274" r="19" fill="#FFDAC1"/>
    <circle cx="837" cy="274" r="19" fill="#FFDAC1"/>
    <circle cx="837" cy="274" r="19" fill="#FFDAC1"/>
    
    <circle cx="553" cy="307" r="19" fill="#FFDAC1"/>
    <circle cx="553" cy="307" r="19" fill="#FFDAC1"/>
    <circle cx="553" cy="307" r="19" fill="#FFDAC1"/>
    <circle cx="553" cy="307" r="19" fill="#FFDAC1"/>
    
    <path d="M449 306H335L215 186V94L139 18" stroke="#FF9AA2" strokeWidth="10"/>
    <circle cx="139" cy="19" r="19" fill="#FFDAC1"/>
    <circle cx="139" cy="19" r="19" fill="#FFDAC1"/>
    <circle cx="139" cy="19" r="19" fill="#FFDAC1"/>
    <circle cx="139" cy="19" r="19" fill="#FFDAC1"/>
    
    <circle cx="215" cy="182" r="19" fill="#FFDAC1"/>
    <circle cx="215" cy="182" r="19" fill="#FFDAC1"/>
    <circle cx="215" cy="182" r="19" fill="#FFDAC1"/>
    <circle cx="215" cy="182" r="19" fill="#FFDAC1"/>
</svg>
